<?xml version="1.0" encoding="utf-8"?>
<!-- Generator: Adobe Illustrator 19.0.0, SVG Export Plug-In . SVG Version: 6.00 Build 0)  -->
<svg version="1.1" xmlns="http://www.w3.org/2000/svg" xmlns:xlink="http://www.w3.org/1999/xlink" x="0px" y="0px"
	 viewBox="0 0 502.7 502.3" style="enable-background:new 0 0 502.7 502.3;" xml:space="preserve">
<style type="text/css">
	.st0{fill:#0092F5;}
	.st1{fill:#FFFFFF;}
	.st2{fill:none;stroke:#FFFFFF;stroke-width:8;stroke-linecap:round;stroke-miterlimit:10;}
</style>
<g id="Layer_1">
</g>
<g id="Layer_2">
	<circle id="XMLID_1_" class="st0" cx="251.3" cy="251" r="251.3"/>
</g>
<g id="Layer_3">
	<g id="XMLID_5_">
		<path id="XMLID_6_" class="st1" d="M172.9,385.3c-14.1,0.6-19.8-5.2-24.1-8.7c0,0,21.6-1.3,32.3-14c10.9-12.8,22.2-40.4,14.2-99.6
			l-0.2-1.7L278.6,155h103.7l59.5,94.3L387.9,333H243.9c-3.7,4.2-7.1,8.3-10.3,12.2C214.1,368.6,200.2,385.2,172.9,385.3z
			 M203.4,263.7c6.4,49.2,0.9,84.3-16.5,104.4c-3.4,3.9-11.1,8-15.1,9.5c21.1-1.5,37.5-15.9,55.5-37.5
			c10.1-12.1,21.4-25.7,37.3-40.9c53.1-50.7,108.9-55.1,111.3-55.3c2.2-0.1,4.1,1.5,4.3,3.7c0.2,2.2-1.5,4.1-3.7,4.3l0,0
			c-0.5,0-55.4,4.5-106.3,53.1c-7.3,7-13.6,13.6-19.3,20h132.7l48.7-75.8L377.8,163h-95.3L203.4,263.7z"/>
	</g>
	<path id="XMLID_3_" class="st2" d="M199.5,329.3c0,0-99.8-15.3-98.5-108.3H42l12.5-20.3l33-17.5l20.3,6.8l20.5-21l29.7-5.5
		l25.8,9.5l-51,40c0,0,0.8,32.3,36,45.8"/>
</g>
</svg>
